# xmcd CD database file
#
# Track frame offsets:
#	150
#	19738
#	41514
#	61530
#	88541
#	109269
#	128542
#	154435
#	175641
#	198865
#	226732
#	235843
#	257959
#	289664
#	311314
#	333322
#
# Disc length: 4734 seconds
#
# Revision: 0
# Processed by: cddbd v1.5.1PL0 Copyright (c) Steve Scherf et al.
# Submitted via: CDex 1.51
#
DISCID=c6127c10
DTITLE=Ed Calle - Music Box
DYEAR=2002
DGENRE=Jazz
TTITLE0=Joyful
TTITLE1=Nightfall
TTITLE2=Rum and Coke (Cuba Libre)
TTITLE3=San Sebastian
TTITLE4=Me and Mrs. Jones
TTITLE5=Strut
TTITLE6=Nightgames
TTITLE7=Strollin'
TTITLE8=Sari's Song
TTITLE9=Spunky
TTITLE10=Spanish Rose Prelude
TTITLE11=Spanish Rose
TTITLE12=Autumn
TTITLE13=Dipssy Doodle
TTITLE14=Hot Sauce
TTITLE15=Amaneciendo (Sunrise)
EXTD=YEAR: 2002
EXTT0=
EXTT1=
EXTT2=
EXTT3=
EXTT4=
EXTT5=
EXTT6=
EXTT7=
EXTT8=
EXTT9=
EXTT10=
EXTT11=
EXTT12=
EXTT13=
EXTT14=
EXTT15=
PLAYORDER=
